<svg width="373" height="325" viewBox="0 0 373 325" fill="none" xmlns="http://www.w3.org/2000/svg">
<path d="M252.381 48.6556C255.549 51.3398 257.961 50.6561 260.488 48.122C263.707 44.8949 266.37 41.3449 268.335 37.2378C270.72 32.25 273.651 27.6199 277.515 23.6219C285.938 14.9066 297.229 14.9563 305.684 23.7523C318.69 37.2837 316.461 58.9422 301.065 69.496C296.217 72.8195 290.878 75.1486 285.629 77.6694C282.509 79.168 281.853 80.6852 284.185 83.7284C304.673 110.466 318.554 140.245 324.902 173.412C326.422 181.35 330.702 187.833 335.283 194.24C348.797 213.138 361.086 232.714 367.852 255.214C369.24 259.831 370.088 264.617 371.61 269.184C373.051 273.509 371.338 275.072 367.364 276.221C344.814 282.742 322.33 289.493 299.813 296.127C267.872 305.536 235.905 314.856 203.997 324.373C200.281 325.481 197.128 324.423 193.811 323.417C167.525 315.444 141.246 307.447 114.959 299.478C111.298 298.368 107.611 297.337 103.921 296.324C101.287 295.601 99.9869 294.257 100.598 291.256C101.558 286.536 102.187 281.75 103.008 277.001C104.148 270.407 102.001 267.173 95.2844 266.477C83.4796 265.255 71.9651 262.741 60.6501 259.278C51.1744 256.377 42.3569 252.065 34.5655 245.893C28.8432 241.36 24.5911 235.658 22.0311 228.752C20.687 225.126 19.074 221.361 16.0396 219.082C5.40032 211.091 1.57828 199.967 0.447424 187.409C-1.46737 166.146 2.67904 146.194 14.5237 128.352C25.6 111.667 41.9726 104.33 61.7036 103.645C69.3454 103.38 77.0398 103.273 84.5549 101.602C96.4731 98.9523 100.389 94.0569 100.898 81.9433C101.045 78.4701 101.45 74.9415 102.286 71.5748C106.04 56.4625 117.176 48.7359 132.94 51.1256C141.753 52.4617 148.823 50.379 156.431 45.7991C184.225 29.0684 212.972 27.7927 242.065 42.8068C245.467 44.5626 248.731 46.5864 252.381 48.6556Z" fill="url(#paint0_linear_20_9)"/>
<path d="M252.381 48.6556C255.549 51.3398 257.961 50.6561 260.488 48.122C263.707 44.8949 266.37 41.3449 268.335 37.2378C270.72 32.25 273.651 27.6199 277.515 23.6219C285.938 14.9066 297.229 14.9563 305.684 23.7523C318.69 37.2837 316.461 58.9422 301.065 69.496C296.217 72.8195 290.878 75.1486 285.629 77.6694C282.509 79.168 281.853 80.6852 284.185 83.7284C304.673 110.466 318.554 140.245 324.902 173.412C326.422 181.35 330.702 187.833 335.283 194.24C348.797 213.138 361.086 232.714 367.852 255.214C369.24 259.831 370.088 264.617 371.61 269.184C373.051 273.509 371.338 275.072 367.364 276.221C344.814 282.742 322.33 289.493 299.813 296.127C267.872 305.536 235.905 314.856 203.997 324.373C200.281 325.481 197.128 324.423 193.811 323.417C167.525 315.444 141.246 307.447 114.959 299.478C111.298 298.368 107.611 297.337 103.921 296.324C101.287 295.601 99.9869 294.257 100.598 291.256C101.558 286.536 102.187 281.75 103.008 277.001C104.148 270.407 102.001 267.173 95.2844 266.477C83.4796 265.255 71.9651 262.741 60.6501 259.278C51.1744 256.377 42.3569 252.065 34.5655 245.893C28.8432 241.36 24.5911 235.658 22.0311 228.752C20.687 225.126 19.074 221.361 16.0396 219.082C5.40032 211.091 1.57828 199.967 0.447424 187.409C-1.46737 166.146 2.67904 146.194 14.5237 128.352C25.6 111.667 41.9726 104.33 61.7036 103.645C69.3454 103.38 77.0398 103.273 84.5549 101.602C96.4731 98.9523 100.389 94.0569 100.898 81.9433C101.045 78.4701 101.45 74.9415 102.286 71.5748C106.04 56.4625 117.176 48.7359 132.94 51.1256C141.753 52.4617 148.823 50.379 156.431 45.7991C184.225 29.0684 212.972 27.7927 242.065 42.8068C245.467 44.5626 248.731 46.5864 252.381 48.6556Z" fill="url(#paint1_linear_20_9)"/>
<path d="M140.642 2.25482C144.221 5.11433 145.538 8.92903 146.989 12.6337C149.771 19.74 152.089 27.0616 156.937 33.1664C158.473 35.1002 158.272 36.5536 156.077 38.0631C148.888 43.0084 141.503 46.7452 132.407 43.8165C131.172 43.4187 129.671 43.1085 128.479 43.4345C121.641 45.3037 119.056 40.9541 116.656 35.8701C110.609 23.0617 115.642 7.20191 127.601 1.61897C131.953 -0.413159 136.184 -0.876661 140.642 2.25482Z" fill="url(#paint2_linear_20_9)"/>
<defs>
<linearGradient id="paint0_linear_20_9" x1="-209.865" y1="-126.845" x2="650.272" y2="687.961" gradientUnits="userSpaceOnUse">
<stop stop-color="#F1F1F1"/>
<stop offset="0.4" stop-color="#9DB2CD"/>
<stop offset="0.7" stop-color="#3F566F"/>
<stop offset="1" stop-color="#4A6D87"/>
</linearGradient>
<linearGradient id="paint1_linear_20_9" x1="-209.865" y1="-126.845" x2="650.272" y2="687.961" gradientUnits="userSpaceOnUse">
<stop stop-color="#F1F1F1"/>
<stop offset="0.4" stop-color="#9DB2CD"/>
<stop offset="0.7" stop-color="#3F566F"/>
<stop offset="1" stop-color="#4A6D87"/>
</linearGradient>
<linearGradient id="paint2_linear_20_9" x1="-209.865" y1="-103.04" x2="606.135" y2="712.96" gradientUnits="userSpaceOnUse">
<stop stop-color="#F1F1F1"/>
<stop offset="0.4" stop-color="#9DB2CD"/>
<stop offset="0.7" stop-color="#3F566F"/>
<stop offset="1" stop-color="#4A6D87"/>
</linearGradient>
</defs>
</svg>
